HIERARCHY
ROOT Hips
{
  OFFSET 5.80788e-005 67.184 3.4734
  CHANNELS 6 Xposition Yposition Zposition Zrotation Xrotation Yrotation
  JOINT Chest
  {
    OFFSET 0 8.7983 -4.7612
    CHANNELS 3 Zrotation Xrotation Yrotation
    JOINT Chest2
    {
      OFFSET 0 8.0291 0.4195
      CHANNELS 3 Zrotation Xrotation Yrotation
      JOINT Chest3
      {
        OFFSET 0 9.9351 -2.2114
        CHANNELS 3 Zrotation Xrotation Yrotation
        JOINT Neck
        {
          OFFSET 0 22.3885 -0.4656
          CHANNELS 3 Zrotation Xrotation Yrotation
          JOINT Head
          {
            OFFSET -0.0001 12.643 3.4389
            CHANNELS 3 Zrotation Xrotation Yrotation
            End Site
            {
              OFFSET 0.0001 17.6655 0.5274
            }
          }
        }
        JOINT LeftCollar
        {
          OFFSET 2.2603 21.606 7.4023
          CHANNELS 3 Zrotation Xrotation Yrotation
          JOINT LeftShoulder
          {
            OFFSET 13.5163 -1.1332 -5.0146
            CHANNELS 3 Zrotation Xrotation Yrotation
            JOINT LeftElbow
            {
              OFFSET -0.0995 -28.05 -0.2431
              CHANNELS 3 Zrotation Xrotation Yrotation
              JOINT LeftWrist
              {
                OFFSET 0.0679 -23.3996 -0.1402
                CHANNELS 3 Zrotation Xrotation Yrotation
                JOINT LeftFinger1
                {
                  OFFSET 0.7932 -9.069 2.5189
                  CHANNELS 3 Zrotation Xrotation Yrotation
                  JOINT LeftFinger11
                  {
                    OFFSET -0.8272 -3.3923 0.5977
                    CHANNELS 3 Zrotation Xrotation Yrotation
                    JOINT LeftFinger12
                    {
                      OFFSET -0.5649 -2.3158 0.4082
                      CHANNELS 3 Zrotation Xrotation Yrotation
                      End Site
                      {
                        OFFSET -0.4919 -1.6479 0.2673
                      }
                    }
                  }
                }
                JOINT LeftFinger2
                {
                  OFFSET 0.9159 -9.2044 0.2193
                  CHANNELS 3 Zrotation Xrotation Yrotation
                  JOINT LeftFinger21
                  {
                    OFFSET 0.0117 -4.1944 -0.0248
                    CHANNELS 3 Zrotation Xrotation Yrotation
                    JOINT LeftFinger22
                    {
                      OFFSET 0.0071 -2.3249 -0.0142
                      CHANNELS 3 Zrotation Xrotation Yrotation
                      End Site
                      {
                        OFFSET -0.1475 -2.0882 0.0028
                      }
                    }
                  }
                }
                JOINT LeftFinger3
                {
                  OFFSET 0.6113 -8.7231 -2.0637
                  CHANNELS 3 Zrotation Xrotation Yrotation
                  JOINT LeftFinger31
                  {
                    OFFSET -0.1927 -3.8059 -0.2383
                    CHANNELS 3 Zrotation Xrotation Yrotation
                    JOINT LeftFinger32
                    {
                      OFFSET -0.1091 -2.1688 -0.1362
                      CHANNELS 3 Zrotation Xrotation Yrotation
                      End Site
                      {
                        OFFSET -0.2358 -1.9176 -0.0906
                      }
                    }
                  }
                }
                JOINT LeftFinger4
                {
                  OFFSET -0.6151 -8.0947 -3.5641
                  CHANNELS 3 Zrotation Xrotation Yrotation
                  JOINT LeftFinger41
                  {
                    OFFSET -0.4882 -2.341 -0.6462
                    CHANNELS 3 Zrotation Xrotation Yrotation
                    JOINT LeftFinger42
                    {
                      OFFSET -0.3575 -1.7167 -0.4742
                      CHANNELS 3 Zrotation Xrotation Yrotation
                      End Site
                      {
                        OFFSET -0.4187 -1.5237 -0.3496
                      }
                    }
                  }
                }
                JOINT LeftFinger0
                {
                  OFFSET -1.42 -1.8761 1.4223
                  CHANNELS 3 Zrotation Xrotation Yrotation
                  JOINT LeftFinger01
                  {
                    OFFSET -1.1471 -3.4929 2.6334
                    CHANNELS 3 Zrotation Xrotation Yrotation
                    JOINT LeftFinger02
                    {
                      OFFSET -0.823 -2.3 1.6571
                      CHANNELS 3 Zrotation Xrotation Yrotation
                      End Site
                      {
                        OFFSET -0.5822 -1.6914 1.1582
                      }
                    }
                  }
                }
              }
            }
          }
        }
        JOINT RightCollar
        {
          OFFSET -2.2603 21.606 7.4023
          CHANNELS 3 Zrotation Xrotation Yrotation
          JOINT RightShoulder
          {
            OFFSET -13.5187 -1.1334 -5.0155
            CHANNELS 3 Zrotation Xrotation Yrotation
            JOINT RightElbow
            {
              OFFSET 0.0994 -28.0499 -0.2431
              CHANNELS 3 Zrotation Xrotation Yrotation
              JOINT RightWrist
              {
                OFFSET -0.0679 -23.3996 -0.1402
                CHANNELS 3 Zrotation Xrotation Yrotation
                JOINT RightFinger1
                {
                  OFFSET -0.7932 -9.0691 2.5189
                  CHANNELS 3 Zrotation Xrotation Yrotation
                  JOINT RightFinger11
                  {
                    OFFSET 0.8272 -3.3923 0.5977
                    CHANNELS 3 Zrotation Xrotation Yrotation
                    JOINT RightFinger12
                    {
                      OFFSET 0.565 -2.3158 0.4082
                      CHANNELS 3 Zrotation Xrotation Yrotation
                      End Site
                      {
                        OFFSET 0.4919 -1.6479 0.2673
                      }
                    }
                  }
                }
                JOINT RightFinger2
                {
                  OFFSET -0.916 -9.2044 0.2193
                  CHANNELS 3 Zrotation Xrotation Yrotation
                  JOINT RightFinger21
                  {
                    OFFSET -0.0117 -4.1944 -0.0248
                    CHANNELS 3 Zrotation Xrotation Yrotation
                    JOINT RightFinger22
                    {
                      OFFSET -0.0071 -2.3249 -0.0142
                      CHANNELS 3 Zrotation Xrotation Yrotation
                      End Site
                      {
                        OFFSET 0.1475 -2.0882 0.0028
                      }
                    }
                  }
                }
                JOINT RightFinger3
                {
                  OFFSET -0.6113 -8.7231 -2.0637
                  CHANNELS 3 Zrotation Xrotation Yrotation
                  JOINT RightFinger31
                  {
                    OFFSET 0.1927 -3.8059 -0.2383
                    CHANNELS 3 Zrotation Xrotation Yrotation
                    JOINT RightFinger32
                    {
                      OFFSET 0.1091 -2.1688 -0.1362
                      CHANNELS 3 Zrotation Xrotation Yrotation
                      End Site
                      {
                        OFFSET 0.2358 -1.9176 -0.0906
                      }
                    }
                  }
                }
                JOINT RightFinger4
                {
                  OFFSET 0.6151 -8.0947 -3.564
                  CHANNELS 3 Zrotation Xrotation Yrotation
                  JOINT RightFinger41
                  {
                    OFFSET 0.4882 -2.341 -0.6462
                    CHANNELS 3 Zrotation Xrotation Yrotation
                    JOINT RightFinger42
                    {
                      OFFSET 0.3574 -1.7166 -0.4742
                      CHANNELS 3 Zrotation Xrotation Yrotation
                      End Site
                      {
                        OFFSET 0.4187 -1.5237 -0.3496
                      }
                    }
                  }
                }
                JOINT RightFinger0
                {
                  OFFSET 1.4199 -1.8761 1.4221
                  CHANNELS 3 Zrotation Xrotation Yrotation
                  JOINT RightFinger01
                  {
                    OFFSET 1.1472 -3.4929 2.6336
                    CHANNELS 3 Zrotation Xrotation Yrotation
                    JOINT RightFinger02
                    {
                      OFFSET 0.8229 -2.3 1.6571
                      CHANNELS 3 Zrotation Xrotation Yrotation
                      End Site
                      {
                        OFFSET 0.5822 -1.6914 1.1582
                      }
                    }
                  }
                }
              }
            }
          }
        }
      }
    }
  }
  JOINT RightHip
  {
    OFFSET -9.412 3.9771 -0.7758
    CHANNELS 3 Zrotation Xrotation Yrotation
    JOINT RightKnee
    {
      OFFSET -0.7531 -40.938 0
      CHANNELS 3 Zrotation Xrotation Yrotation
      JOINT RightAnkle
      {
        OFFSET 0 -40.1986 0
        CHANNELS 3 Zrotation Xrotation Yrotation
        JOINT RightToe
        {
          OFFSET 0 -4.4182 9.239
          CHANNELS 3 Zrotation Xrotation Yrotation
          End Site
          {
            OFFSET 0 0 6.1981
          }
        }
      }
    }
  }
  JOINT LeftHip
  {
    OFFSET 9.4119 3.9773 -0.7758
    CHANNELS 3 Zrotation Xrotation Yrotation
    JOINT LeftKnee
    {
      OFFSET 0.7532 -40.9383 0
      CHANNELS 3 Zrotation Xrotation Yrotation
      JOINT LeftAnkle
      {
        OFFSET 0 -40.1986 0
        CHANNELS 3 Zrotation Xrotation Yrotation
        JOINT LeftToe
        {
          OFFSET 0 -4.4182 9.239
          CHANNELS 3 Zrotation Xrotation Yrotation
          End Site
          {
            OFFSET 0 0 6.1981
          }
        }
      }
    }
  }
}
MOTION
Frames:	6
Frame Time:	0.0333333
0.00130603 0.0372925 -47.65 -180 -89.9981 -180 -0.100518 13.5171 -0.0999247 -0.18402 27.0344 -0.182624 -0.184019 27.0343 -0.182623 14.1669 27.4498 -6.62973 17.4871 -5.73408 -2.8463 7.96468 -11.6289 -8.65303 10.257 6.48814 36.9713 -106.186 -70.4934 -78.8423 -16.0226 19.6564 -16.2528 -7.95139e-016 -6.36111e-015 -2.38542e-015 -7.95139e-016 0 -3.57812e-015 7.95139e-016 0 -1.59028e-015 -7.95139e-016 -6.36111e-015 -2.38542e-015 -0.0128441 0.00234272 8.2914e-005 1.59028e-015 0 2.78299e-015 -7.95139e-016 -6.36111e-015 -2.38542e-015 -0.016016 0.00299973 0.000847796 1.59028e-015 6.36111e-015 4.37326e-015 -7.95139e-016 -6.36111e-015 -2.38542e-015 -0.0126096 0.00312149 0.0028238 -3.08973e-031 6.36111e-015 2.78299e-015 -7.95139e-016 -6.36111e-015 -2.38542e-015 -7.95139e-016 0 -3.57812e-015 7.95139e-016 0 -1.59028e-015 -8.7581 -11.5197 2.18755 -3.73205 34.4478 -19.6014 39.937 -71.8756 65.9541 3.19546 -0.116443 21.7312 2.38542e-015 3.18055e-015 3.77691e-015 7.95139e-016 0 -9.74045e-015 7.95139e-016 -3.18055e-015 -3.97569e-016 2.38542e-015 3.18055e-015 3.77691e-015 0.0129679 0.00232131 -8.42407e-005 -4.77083e-015 0 5.56597e-015 2.38542e-015 3.18055e-015 3.77691e-015 0.0163585 0.00303086 -0.000873652 -7.95139e-016 0 -1.47101e-014 2.38542e-015 3.18055e-015 3.77691e-015 0.0145761 0.00368321 -0.00326099 1.59028e-015 0 -2.18663e-015 2.38542e-015 3.18055e-015 3.77691e-015 7.95139e-016 0 -9.74045e-015 7.95139e-016 -3.18055e-015 -3.97569e-016 -15.8958 0.905816 -1.17628 1.41146 10.78 -0.532797 -8.68598 12.0034 -1.0538 -3.44338e-007 -1.48147e-007 7.81136e-007 16.0465 0.464601 1.19358 -1.4022 10.937 0.52652 8.68315 11.9946 1.05297 2.45973e-006 -5.69849e-007 -1.73564e-006 
0.0013747 0.0372009 -47.6501 180 -89.9981 180 -0.100485 13.5108 -0.0999566 -0.183949 27.0219 -0.182704 -0.183948 27.0218 -0.182704 14.1458 27.4854 -6.62769 17.7611 -5.64374 -2.9054 7.96468 -11.6289 -8.65303 10.257 6.48815 36.9713 -106.186 -70.4934 -78.8423 -16.0226 19.6565 -16.2528 -1.59028e-015 -6.36111e-015 -7.95139e-016 -2.38542e-015 0 -1.98785e-015 -3.18055e-015 6.36111e-015 -1.98785e-015 -1.59028e-015 -6.36111e-015 -7.95139e-016 -0.0128268 0.0023177 8.32708e-005 -7.95139e-016 1.59028e-014 3.18055e-015 -1.59028e-015 -6.36111e-015 -7.95139e-016 -0.0160358 0.00297903 0.000855605 -7.95139e-016 0 -4.37326e-015 -1.59028e-015 -6.36111e-015 -7.95139e-016 -0.0126118 0.00311858 0.0028326 4.77083e-015 -3.18055e-015 3.57812e-015 -1.59028e-015 -6.36111e-015 -7.95139e-016 -2.38542e-015 0 -1.98785e-015 -3.18055e-015 6.36111e-015 -1.98785e-015 -8.75809 -11.5197 2.18756 -3.70513 34.4482 -19.6127 39.9369 -71.8755 65.9541 3.17283 -0.130511 21.7096 -5.97151e-007 4.85742e-006 7.75488e-006 -1.59028e-015 -3.18055e-015 3.97569e-016 7.95139e-016 -3.18055e-015 -0 -5.97151e-007 4.85742e-006 7.75488e-006 0.0129527 0.00231505 -9.60397e-005 -1.59028e-015 3.18055e-015 -1.17283e-014 -5.97151e-007 4.85742e-006 7.75488e-006 0.0163416 0.00302109 -0.000876583 -1.59028e-015 6.36111e-015 -2.98177e-015 -5.97151e-007 4.85742e-006 7.75488e-006 0.0145562 0.00367458 -0.00325687 7.95139e-016 3.18055e-015 -5.36719e-015 -5.97151e-007 4.85742e-006 7.75488e-006 -1.59028e-015 -3.18055e-015 3.97569e-016 7.95139e-016 -3.18055e-015 -0 -15.8937 0.904341 -1.176 1.41495 10.7645 -0.533291 -8.68607 12.0057 -1.05344 2.6984e-007 1.55318e-005 3.77133e-006 16.0506 0.47183 1.19393 -1.39625 10.9642 0.525611 8.68293 11.9907 1.05361 -1.77892e-006 -1.39611e-006 1.68986e-007 
0.00144334 0.0371094 -47.6501 -179.998 -89.9981 -179.998 -0.100453 13.5045 -0.0999886 -0.183878 27.0093 -0.182785 -0.183877 27.0092 -0.182785 14.1247 27.521 -6.62563 18.0352 -5.55369 -2.96491 7.96468 -11.6289 -8.65303 10.257 6.48817 36.9713 -106.186 -70.4934 -78.8423 -16.0226 19.6565 -16.2528 -2.38542e-015 0 -3.57812e-015 -1.59028e-015 0 -4.77083e-015 4.19321e-031 3.18055e-015 -7.55382e-015 -2.38542e-015 0 -3.57812e-015 -0.0128027 0.0023279 8.32057e-005 7.95139e-016 3.18055e-015 1.59028e-015 -2.38542e-015 0 -3.57812e-015 -0.0160284 0.00299895 0.00085016 -2.38542e-015 9.54166e-015 2.38542e-015 -2.38542e-015 0 -3.57812e-015 -0.0126124 0.00312894 0.00282843 -2.38542e-015 0 3.18055e-015 -2.38542e-015 0 -3.57812e-015 -1.59028e-015 0 -4.77083e-015 4.19321e-031 3.18055e-015 -7.55382e-015 -8.7581 -11.5197 2.18756 -3.67823 34.4485 -19.624 39.9368 -71.8755 65.954 3.1502 -0.14454 21.688 -7.95139e-016 3.18055e-015 2.78299e-015 7.95139e-016 3.18055e-015 -3.77691e-015 0 0 -2.98177e-015 -7.95139e-016 3.18055e-015 2.78299e-015 0.0129452 0.00231826 -8.27999e-005 0 0 -4.77083e-015 -7.95139e-016 3.18055e-015 2.78299e-015 0.0163311 0.00303303 -0.000869737 5.9392e-007 8.44009e-006 -3.72703e-006 -7.95139e-016 3.18055e-015 2.78299e-015 0.0146213 0.00368958 -0.00326647 3.18055e-015 -6.36111e-015 -8.94531e-015 -7.95139e-016 3.18055e-015 2.78299e-015 7.95139e-016 3.18055e-015 -3.77691e-015 0 0 -2.98177e-015 -15.8916 0.902362 -1.17571 1.41843 10.7498 -0.533814 -8.68616 12.0077 -1.05313 6.59831e-007 1.13846e-005 4.26554e-006 16.0546 0.479191 1.19427 -1.39031 10.9913 0.524715 8.68271 11.9869 1.0542 4.28613e-007 -1.13653e-005 5.88789e-006 
0.001512 0.0370102 -47.6501 -179.999 -89.9981 -179.999 -0.10042 13.4983 -0.100021 -0.183806 26.9968 -0.182867 -0.183805 26.9967 -0.182866 14.1036 27.5566 -6.62356 18.3091 -5.46397 -3.02483 7.96468 -11.6289 -8.65303 10.257 6.48818 36.9713 -106.186 -70.4934 -78.8423 -16.0226 19.6564 -16.2528 -3.97569e-015 1.59028e-014 -3.18055e-015 7.95139e-016 1.59028e-014 -3.97569e-016 7.95139e-016 1.59028e-014 3.57812e-015 -3.97569e-015 1.59028e-014 -3.18055e-015 -0.0127995 0.0023313 8.61559e-005 -3.53113e-031 6.36111e-015 3.18055e-015 -3.97569e-015 1.59028e-014 -3.18055e-015 -0.016028 0.0029906 0.000858821 7.95139e-016 -3.18055e-015 1.59028e-015 -3.97569e-015 1.59028e-014 -3.18055e-015 -0.0126025 0.00313575 0.00282791 1.59028e-015 -6.36111e-015 2.38542e-015 -3.97569e-015 1.59028e-014 -3.18055e-015 7.95139e-016 1.59028e-014 -3.97569e-016 7.95139e-016 1.59028e-014 3.57812e-015 -8.75809 -11.5197 2.18756 -3.65143 34.4488 -19.6354 39.9367 -71.8755 65.9539 3.12758 -0.158625 21.6664 4.64883e-006 3.83461e-006 -4.44883e-006 1.62156e-006 -2.96813e-006 5.15637e-007 7.95139e-016 0 -2.78299e-015 4.64883e-006 3.83461e-006 -4.44883e-006 0.0129536 0.00233031 -9.21195e-005 3.18055e-015 0 -7.95139e-016 4.64883e-006 3.83461e-006 -4.44883e-006 0.0163209 0.00304078 -0.00087359 -1.59028e-015 6.36111e-015 1.19271e-015 4.64883e-006 3.83461e-006 -4.44883e-006 0.0146012 0.00367838 -0.00326835 -1.59028e-015 -3.18055e-015 5.76476e-015 4.64883e-006 3.83461e-006 -4.44883e-006 1.62156e-006 -2.96813e-006 5.15637e-007 7.95139e-016 0 -2.78299e-015 -15.8894 0.900914 -1.17542 1.42193 10.7342 -0.534332 -8.6863 12.0101 -1.05275 -6.36111e-015 6.36111e-015 1.59028e-015 16.0586 0.48679 1.19462 -1.38436 11.0178 0.523774 8.68249 11.9834 1.05478 1.77884e-006 -9.70029e-008 -1.67097e-007 
0.00158065 0.0369186 -47.6501 -179.998 -89.9981 -179.998 -0.100387 13.492 -0.100053 -0.183734 26.9842 -0.182948 -0.183734 26.9841 -0.182948 14.0824 27.5922 -6.62147 18.583 -5.37454 -3.08516 7.96468 -11.6289 -8.65303 10.257 6.48815 36.9713 -106.186 -70.4934 -78.8423 -16.0225 19.6565 -16.2528 -7.95139e-016 0 1.59028e-015 7.95139e-016 0 3.97569e-016 7.95139e-016 -6.36111e-015 -1.98785e-015 -7.95139e-016 0 1.59028e-015 -0.012794 0.00232771 8.43559e-005 7.95139e-016 -6.36111e-015 -3.97569e-015 -7.95139e-016 0 1.59028e-015 -0.0160513 0.00299804 0.000852693 -0 0 2.38542e-015 -7.95139e-016 0 1.59028e-015 -0.0125919 0.00311342 0.00280865 7.95139e-016 0 -0 -7.95139e-016 0 1.59028e-015 7.95139e-016 0 3.97569e-016 7.95139e-016 -6.36111e-015 -1.98785e-015 -8.75809 -11.5197 2.18756 -3.62451 34.4491 -19.6467 39.9366 -71.8755 65.9539 3.10493 -0.17267 21.6448 -2.38542e-015 -9.54166e-015 1.8487e-014 -1.59028e-015 0 1.23246e-014 -5.51738e-032 -3.18055e-015 -9.93923e-016 -2.38542e-015 -9.54166e-015 1.8487e-014 0.0129405 0.0023166 -7.86758e-005 8.26432e-006 4.24403e-006 -1.71634e-005 -2.38542e-015 -9.54166e-015 1.8487e-014 0.0163508 0.00304531 -0.000875551 -5.56597e-015 0 7.95139e-015 -2.38542e-015 -9.54166e-015 1.8487e-014 0.0145572 0.00367023 -0.00325788 -7.95139e-016 -3.18055e-015 5.96354e-016 -2.38542e-015 -9.54166e-015 1.8487e-014 -1.59028e-015 0 1.23246e-014 -5.51738e-032 -3.18055e-015 -9.93923e-016 -15.8873 0.899345 -1.17513 1.42541 10.7187 -0.534823 -8.68642 12.0125 -1.0524 4.00522e-006 3.15896e-005 1.22157e-005 16.0626 0.49397 1.19496 -1.37841 11.0451 0.522875 8.68231 11.9796 1.05539 1.09473e-006 -2.12614e-007 1.39813e-006 
0.0016493 0.0368271 -47.6501 180 -89.9981 180 -0.100354 13.4857 -0.100085 -0.183662 26.9717 -0.18303 -0.183661 26.9716 -0.183029 14.0613 27.6278 -6.61936 18.857 -5.28545 -3.14587 7.96469 -11.6289 -8.65303 10.257 6.48816 36.9712 -106.186 -70.4934 -78.8424 -16.0225 19.6565 -16.2528 8.46256e-006 9.93797e-006 -4.89346e-006 3.18055e-015 -3.18055e-015 -7.95139e-016 7.95139e-016 0 -7.95139e-016 8.46256e-006 9.93797e-006 -4.89346e-006 -0.0127954 0.00231125 8.56042e-005 7.95139e-016 -3.18055e-015 7.15625e-015 8.46256e-006 9.93797e-006 -4.89346e-006 -0.0160258 0.00298849 0.000856435 -4.8553e-031 6.36111e-015 4.37326e-015 8.46256e-006 9.93797e-006 -4.89346e-006 -0.0125825 0.00311757 0.00282776 3.97569e-015 3.18055e-015 -0 8.46256e-006 9.93797e-006 -4.89346e-006 3.18055e-015 -3.18055e-015 -7.95139e-016 7.95139e-016 0 -7.95139e-016 -8.75809 -11.5197 2.18756 -3.5976 34.4495 -19.658 39.9366 -71.8755 65.9539 3.08232 -0.186702 21.6232 1.40623e-006 5.11123e-006 -5.475e-006 4.65077e-006 1.33611e-005 -4.44636e-006 -2.16035e-007 -3.64886e-006 -5.98931e-006 1.40623e-006 5.11123e-006 -5.475e-006 0.0129643 0.00231628 -8.51146e-005 7.95139e-016 -6.36111e-015 -3.97569e-015 1.40623e-006 5.11123e-006 -5.475e-006 0.0163209 0.00302587 -0.000870824 7.95139e-016 -3.18055e-015 -1.13307e-014 1.40623e-006 5.11123e-006 -5.475e-006 0.0145478 0.0036549 -0.00325336 -7.95139e-016 0 -3.97569e-016 1.40623e-006 5.11123e-006 -5.475e-006 4.65077e-006 1.33611e-005 -4.44636e-006 -2.16035e-007 -3.64886e-006 -5.98931e-006 -15.8852 0.897595 -1.17485 1.42891 10.7036 -0.535338 -8.68652 12.0147 -1.05205 -1.78133e-006 -9.4374e-008 1.61926e-007 16.0667 0.501434 1.19531 -1.3725 11.0721 0.52196 8.6821 11.9758 1.05599 2.1212e-006 8.48162e-007 -9.4717e-007 
